<svg xmlns="http://www.w3.org/2000/svg" width="41.843" height="41.285" viewBox="0 0 41.843 41.285"><g transform="translate(830 -402.6)"><path d="M39.649,42.267h-3.1A1.55,1.55,0,0,0,35,43.817v1.55a1.55,1.55,0,0,0,1.55,1.55h3.1a1.549,1.549,0,0,0,1.55-1.55v-1.55A1.549,1.549,0,0,0,39.649,42.267Z" transform="translate(-851.052 377.38)" fill="rgba(255,255,255,0.9)"/><path d="M56.316,42.267h-3.1a1.55,1.55,0,0,0-1.55,1.55v1.55a1.549,1.549,0,0,0,1.55,1.55h3.1a1.549,1.549,0,0,0,1.55-1.55v-1.55A1.549,1.549,0,0,0,56.316,42.267Z" transform="translate(-859.971 377.38)" fill="rgba(255,255,255,0.9)"/><path d="M72.982,42.267h-3.1a1.55,1.55,0,0,0-1.55,1.55v1.55a1.55,1.55,0,0,0,1.55,1.55h3.1a1.55,1.55,0,0,0,1.55-1.55v-1.55A1.55,1.55,0,0,0,72.982,42.267Z" transform="translate(-868.888 377.38)" fill="rgba(255,255,255,0.9)"/><path d="M22.982,56.667h-3.1a1.549,1.549,0,0,0-1.55,1.55v1.55a1.55,1.55,0,0,0,1.55,1.55h3.1a1.55,1.55,0,0,0,1.55-1.55v-1.55A1.549,1.549,0,0,0,22.982,56.667Z" transform="translate(-842.134 369.675)" fill="rgba(255,255,255,0.9)"/><path d="M39.649,56.667h-3.1A1.55,1.55,0,0,0,35,58.217v1.55a1.55,1.55,0,0,0,1.55,1.55h3.1a1.55,1.55,0,0,0,1.55-1.55v-1.55A1.549,1.549,0,0,0,39.649,56.667Z" transform="translate(-851.052 369.675)" fill="rgba(255,255,255,0.9)"/><path d="M56.316,56.667h-3.1a1.549,1.549,0,0,0-1.55,1.55v1.55a1.55,1.55,0,0,0,1.55,1.55h3.1a1.55,1.55,0,0,0,1.55-1.55v-1.55A1.549,1.549,0,0,0,56.316,56.667Z" transform="translate(-859.971 369.675)" fill="rgba(255,255,255,0.9)"/><path d="M72.982,56.667h-3.1a1.55,1.55,0,0,0-1.55,1.55v1.55a1.55,1.55,0,0,0,1.55,1.55h3.1a1.55,1.55,0,0,0,1.55-1.55v-1.55A1.55,1.55,0,0,0,72.982,56.667Z" transform="translate(-868.888 369.675)" fill="rgba(255,255,255,0.9)"/><path d="M22.982,71.066h-3.1a1.55,1.55,0,0,0-1.55,1.55v1.55a1.549,1.549,0,0,0,1.55,1.55h3.1a1.549,1.549,0,0,0,1.55-1.55v-1.55A1.55,1.55,0,0,0,22.982,71.066Z" transform="translate(-842.134 361.97)" fill="rgba(255,255,255,0.9)"/><path d="M39.649,71.066h-3.1A1.55,1.55,0,0,0,35,72.616v1.55a1.55,1.55,0,0,0,1.55,1.55h3.1a1.549,1.549,0,0,0,1.55-1.55v-1.55A1.55,1.55,0,0,0,39.649,71.066Z" transform="translate(-851.052 361.97)" fill="rgba(255,255,255,0.9)"/><path d="M56.316,71.066h-3.1a1.55,1.55,0,0,0-1.55,1.55v1.55a1.549,1.549,0,0,0,1.55,1.55h3.1a1.549,1.549,0,0,0,1.55-1.55v-1.55A1.55,1.55,0,0,0,56.316,71.066Z" transform="translate(-859.971 361.97)" fill="rgba(255,255,255,0.9)"/><path d="M42.194,15.6H40.256v2.325a3.487,3.487,0,1,1-6.974,0V15.6H29.408v2.325a3.487,3.487,0,1,1-6.974,0V15.6H18.56v2.325a3.487,3.487,0,1,1-6.974,0V15.6H9.649A4.654,4.654,0,0,0,5,20.249V47.587a4.654,4.654,0,0,0,4.649,4.649H42.194a4.654,4.654,0,0,0,4.649-4.649V20.249A4.654,4.654,0,0,0,42.194,15.6Zm1.55,31.987a1.551,1.551,0,0,1-1.55,1.55H9.649a1.551,1.551,0,0,1-1.55-1.55V26.448a1.55,1.55,0,0,1,1.55-1.55H42.194a1.549,1.549,0,0,1,1.55,1.55Z" transform="translate(-835 391.649)" fill="rgba(255,255,255,0.9)"/><path d="M23.992,14.9a2.325,2.325,0,0,0,2.325-2.325V7.925a2.325,2.325,0,1,0-4.649,0v4.649A2.325,2.325,0,0,0,23.992,14.9Z" transform="translate(-843.918 397)" fill="rgba(255,255,255,0.9)"/><path d="M47.325,14.9a2.325,2.325,0,0,0,2.325-2.325V7.925a2.325,2.325,0,1,0-4.649,0v4.649A2.325,2.325,0,0,0,47.325,14.9Z" transform="translate(-856.403 397)" fill="rgba(255,255,255,0.9)"/><path d="M70.658,14.9a2.325,2.325,0,0,0,2.325-2.325V7.925a2.325,2.325,0,0,0-4.649,0v4.649A2.325,2.325,0,0,0,70.658,14.9Z" transform="translate(-868.888 397)" fill="rgba(255,255,255,0.9)"/></g></svg>