<svg xmlns="http://www.w3.org/2000/svg" width="123.825" height="100.728" viewBox="0 0 123.825 100.728"><g transform="translate(1201.635 -331.774)"><g transform="translate(-1203 326)"><path d="M46.014,54.948l17.831-3.4V30.731L39.07,39.485Z" transform="translate(61.064 40.419)" fill=""/><path d="M35.645,51.109H69.392V39.976L49.57,43.6Z" transform="translate(55.517 55.391)" fill=""/><g transform="translate(1.365 5.774)"><path d="M7.954,36.652l9.991,17.923L67.993,38.326,43.779,27.075H29.342Z" transform="translate(9.306 28.724)" fill=""/><path d="M14.728,44.17,9.94,56.891H57.39L34.3,36.406Z" transform="translate(12.522 43.836)" fill=""/><path d="M14.659,31.74,1.365,37.605V64.447H18.638l5.189-18.172Z" transform="translate(-1.365 36.279)" fill=""/><path d="M14.96,51.594c.024-1.566.065-3.453.162-5.606.11-3.047.7-27.809,7.4-29.847.946-.325,2.371.241,3.607,1.121a18.93,18.93,0,0,1,3.337,3.1c1.936,2.213,9.747,15.222,9.747,15.222-6.2-4.626-8.566-9.564-9.449-13-1.739,3.136-3.911,11.439,13.653,20.707,0,0,4.354-23.455-9.64-22.538-2.756-3.95-7.353-9.221-11.984-8.788C13.457,13.137,10.151,32.846,9.847,34.795c-.7,3.9-1.171,7.547-1.517,10.669-.283,2.392-.482,4.469-.626,6.132H1.365V65.865L31.757,51.6H14.96Z" transform="translate(-1.365 4.205)" fill=""/><path d="M64.47,38.942l-11.015-6.42L21.416,39.94,45.2,63.181h8.257L67.661,52.936Z" transform="translate(31.108 37.546)" fill=""/><path d="M66.662,30.183c.469-.579,1.066-1.312,1.8-2.2,9.213-10.63,13.666-2.221,14.038-1.708C85.6,30.4,84.892,39.59,84.892,39.59c-2.606-4.846-2.648-8.728-2.182-11.209-2.062,1.5-5.952,6.2,2.578,17.43,0,0,9.252-13,1.273-17.056-.055-.191-.12-.406-.21-.652-.267-.828-5.386-15.927-19.379-5.019-.388.3-.715.6-1.069.893-.663-4.031-2.677-15.2-11.193-17.807C43.126,2.61,30.332,24.211,30.332,24.211c2.73-9.1,7.429-13.9,11.023-16.356-4.346-.686-14.834.3-18.14,24.443,0,0,29.09-4.875,21.855-20.768.3-.152.576-.288.891-.453,1.286-.485,11.316-5.868,13.669,9.593,1.331,8.765.778,29.388.736,33-.094,2.916-.165,5.663-.215,7.911H25.769L60.124,75.844l29.4-8.275V61.575h-22.9C66.851,55.142,66.78,43.048,66.662,30.183Z" transform="translate(34.021 -5.774)" fill=""/></g></g></g></svg>