<svg xmlns="http://www.w3.org/2000/svg" width="101.096" height="101.092" viewBox="0 0 101.096 101.092"><g transform="translate(841 287.996)"><path d="M80.212,36.884h3.611a3.612,3.612,0,0,0,2.458-6.257L64.389,10.3a8.572,8.572,0,0,0-11.671-.008l-21.9,20.335a3.612,3.612,0,0,0,2.458,6.257h3.611V58.547H8V109.1H36.885L45.55,93.931a1.805,1.805,0,0,0-1.444-2.888H33.683a1.806,1.806,0,0,1-1.349-3.005l19.14-21.532a2.186,2.186,0,0,1,3.707,2.143l-3.062,9.185a1.805,1.805,0,0,0,1.713,2.377H66.269a1.8,1.8,0,0,1,1.567,2.7L54.938,109.1H109.1V58.547H80.212ZM64.867,42.89c-.081.084-5.54,5.607-5.622,5.69l2.914,9.968H51.327V47.716a3.1,3.1,0,0,1,1.015-2.6l4.777-4.72c-.522-.556-4.3-4.576-4.82-5.131a2.818,2.818,0,0,1-.3-3.467l5.821-8.291a2.37,2.37,0,0,1,4.211,2.1l-3.275,6.728,5.959,5.6A3.5,3.5,0,0,1,64.867,42.89Z" transform="translate(-849 -296)" fill="#366cad" opacity="0.866"/></g></svg>