<svg xmlns="http://www.w3.org/2000/svg" width="77.363" height="96.204" viewBox="0 0 77.363 96.204"><g transform="translate(462.921 95)"><g transform="translate(-467 -96)"><path d="M61.264,26.855c5.111,9.921,2.405,15.332,2.405,15.332C55.552,15.13,32.1,1,32.1,1c11.124,12.927,4.51,25.855,4.51,25.855C32.7,19.94,25.187,15.431,25.187,15.431a28.126,28.126,0,0,1-1.5,31.266c-5.411-7.516-.6-16.836-.6-16.836A44.588,44.588,0,0,0,9.855,56.017C7.149,53.01,7.45,45.494,7.45,45.494-2.772,79.166,11.959,96,28.795,96.9c1.8-3.908,12.025-18.038-.6-29.763,0,0,14.13-1.5,20.143,21.045,0,0,6.313-14.13-6.614-21.045,0,0,16.836,2.706,17.136,17.738A22.207,22.207,0,0,1,54.95,97.2c8.718-.3,17.136-6.013,21.345-12.627C93.732,58.121,61.264,26.855,61.264,26.855Z" fill="#366cad"/></g></g></svg>