<svg xmlns="http://www.w3.org/2000/svg" width="109.217" height="96.517" viewBox="0 0 109.217 96.517"><g transform="translate(0 0)"><path d="M37.1,39.875a10.475,10.475,0,0,0-12.7-8.338A10.941,10.941,0,0,0,16.17,42.43V57.2c1.081-.172,2.144-.377,3.225-.617a49.523,49.523,0,0,1,17.875-.96V54.046c0-3.946.018-7.909,0-11.871A15.087,15.087,0,0,0,37.1,39.875Z" transform="translate(10.386 15.672)" fill="#366cad"/><path d="M37.1,39.875a10.475,10.475,0,0,0-12.7-8.338A10.941,10.941,0,0,0,16.17,42.43V57.2c1.081-.172,2.144-.377,3.225-.617a49.523,49.523,0,0,1,17.875-.96V54.046c0-3.946.018-7.909,0-11.871A15.087,15.087,0,0,0,37.1,39.875Z" transform="translate(10.386 15.672)" fill="#366cad"/><path d="M107.34,42.457c-1.235-.943-2.488-1.887-3.705-2.83-1.956-1.528-3.929-3.02-5.867-4.512L80.132,21.545l-3.466-2.66C71.314,14.8,65.96,10.668,60.625,6.585a9.184,9.184,0,0,0-2.779-1.492c-.051-.018-.085-.018-.121-.034-.275-.085-.549-.154-.84-.223-.154-.018-.308-.034-.48-.051-.206-.018-.4-.018-.583-.018s-.4,0-.583.018c-.154.018-.344.034-.5.051-.275.069-.549.136-.824.223-.034.018-.085.018-.121.034a8.931,8.931,0,0,0-2.763,1.492c-6.519,4.974-13.021,9.984-19.523,14.96V16a2.428,2.428,0,0,0-2.419-2.419H19.9a2.431,2.431,0,0,0-2.419,2.437c.018,5.454.069,10.087-.069,14.7a4.481,4.481,0,0,1-1.047,2.47c-2.779,2.162-5.559,4.288-8.355,6.433-1.235.943-2.47,1.887-3.688,2.83-1.682,1.287-2.8,2.763-2.711,4.65a4.594,4.594,0,0,0,.84,2.8,6.421,6.421,0,0,0,7.016,2.334,7.379,7.379,0,0,0,1.767-.789V78.381a66.24,66.24,0,0,0,7.822.154V59.046h.018V46.127a2.421,2.421,0,0,1,.085-.6Q36.271,32.48,53.3,19.348l1.184-.875a2.944,2.944,0,0,1,1.338-.447,2.8,2.8,0,0,1,1.32.447l1.184.875Q75.359,32.5,92.5,45.527c.018.206.069.4.069.6V59.046h.018V75.087a31.767,31.767,0,0,1,7.822.7V51.445a6.887,6.887,0,0,0,1.784.789,6.426,6.426,0,0,0,7-2.334,4.7,4.7,0,0,0,.824-2.8C110.119,45.218,109.022,43.744,107.34,42.457Z" transform="translate(-0.858 -4.767)" fill="#366cad"/><path d="M37.1,39.875a10.475,10.475,0,0,0-12.7-8.338A10.941,10.941,0,0,0,16.17,42.43V57.2c1.081-.172,2.144-.377,3.225-.617a49.523,49.523,0,0,1,17.875-.96V54.046c0-3.946.018-7.909,0-11.871A15.087,15.087,0,0,0,37.1,39.875Z" transform="translate(10.386 15.672)" fill="#366cad"/><path d="M37.1,39.875a10.475,10.475,0,0,0-12.7-8.338A10.941,10.941,0,0,0,16.17,42.43V57.2c1.081-.172,2.144-.377,3.225-.617a49.523,49.523,0,0,1,17.875-.96V54.046c0-3.946.018-7.909,0-11.871A15.087,15.087,0,0,0,37.1,39.875Z" transform="translate(10.386 15.672)" fill="#366cad"/><path d="M33.441,20.777V35.662h8.346V20.777Z" transform="translate(23.721 7.594)" fill="#366cad"/><path d="M26.271,20.777V35.662h8.346V20.777Z" transform="translate(18.185 7.594)" fill="#366cad"/><path d="M65.064,28.956,47.428,15.4l-3.468-2.66" transform="translate(31.842 1.387)" fill="#366cad"/><path d="M82.306,54.149c-8.7-2.6-17.412-2.189-26.174-.262a73.7,73.7,0,0,1-30.15.36,2.515,2.515,0,0,0-1.48.133c.443.323.867.68,1.333.964a47.212,47.212,0,0,0,27.538,7.273c4.076-.223,8.1-1.409,12.142-2.183A85.751,85.751,0,0,1,87.841,58.8c1.522.108,3.037.314,4.556.475A26.642,26.642,0,0,0,82.306,54.149Z" transform="translate(16.82 31.949)" fill="#366cad"/><path d="M53.865,48.327c-7.776-2.32-15.566-1.956-23.4-.234a65.865,65.865,0,0,1-26.953.321,2.237,2.237,0,0,0-1.322.119c.4.289.774.608,1.191.863A42.188,42.188,0,0,0,28,55.9c3.643-.2,7.241-1.26,10.856-1.953a76.679,76.679,0,0,1,19.957-1.46c1.361.1,2.715.282,4.072.425A23.841,23.841,0,0,0,53.865,48.327Z" transform="translate(-0.407 27.603)" fill="#366cad"/><path d="M75.855,47.623c-5.931-1.77-11.873-1.492-17.847-.179a50.219,50.219,0,0,1-20.558.245,1.717,1.717,0,0,0-1.008.09c.3.22.59.464.909.657a32.178,32.178,0,0,0,18.777,4.958,63.243,63.243,0,0,0,8.281-1.489,58.526,58.526,0,0,1,15.222-1.115c1.038.074,2.072.214,3.106.324A18.239,18.239,0,0,0,75.855,47.623Z" transform="translate(26.038 27.359)" fill="#366cad"/><path d="M40.6,56.492C34.666,54.722,28.724,55,22.75,56.313a50.219,50.219,0,0,1-20.558.245,1.717,1.717,0,0,0-1.008.09c.3.22.59.464.909.657A32.178,32.178,0,0,0,20.87,62.264a63.243,63.243,0,0,0,8.281-1.489A58.526,58.526,0,0,1,44.373,59.66c1.038.074,2.072.214,3.106.324A18.213,18.213,0,0,0,40.6,56.492Z" transform="translate(-1.184 34.206)" fill="#366cad"/></g></svg>