<svg xmlns="http://www.w3.org/2000/svg" width="75.345" height="79.331" viewBox="0 0 75.345 79.331"><g transform="translate(-850.327 303.666)"><g transform="translate(848.576 -1325.025)"><path d="M45.424,1027.33a4.214,4.214,0,0,0-3.253,1.358l-8.422,9-10.772-2.06c-4.331-.826-5.57,5.67-1.239,6.5l12.559,2.4a3.3,3.3,0,0,0,3.031-.986l3.537-3.78v20.026h-11.9a3.3,3.3,0,0,0-3.135,2.262l-7.178,22.194H15.086c-4.437-.064-4.464,6.569-.093,6.6h.093c2.789,0,8.368,0,8.368,0l7.893-24.445H44.794c2.857,0,5.324-1.776,5.324-4.632v-29.739a4.628,4.628,0,0,0-4.694-4.689Z" transform="translate(16.416 9.814)" fill="#fff" fill-rule="evenodd"/><path d="M32.652,1027.309a5.949,5.949,0,1,1-5.949-5.949A5.949,5.949,0,0,1,32.652,1027.309Z" transform="translate(31.239 0)" fill="#fff"/><path d="M44.026,1030.58a2.647,2.647,0,0,0-2.6,2.68v30.405H22.916c-3.575-.05-3.575,5.338,0,5.288H44.067a2.644,2.644,0,0,0,2.644-2.644V1033.26A2.64,2.64,0,0,0,44.026,1030.58Z" transform="translate(30.385 15.157)" fill="#fff" fill-rule="evenodd"/><path d="M29,1046.09v6.63l-2.024.027a1.331,1.331,0,0,0-.682.185l-2.938,2a1.323,1.323,0,0,0-.64,1.136v2.623a1.322,1.322,0,1,0,2.644,0v-1.875l1.983-1.43,1.658-.026v3.3a1.322,1.322,0,1,0,2.644,0v-3.3l1.647.026,1.983,1.43v1.875a1.322,1.322,0,1,0,2.644,0v-2.623a1.324,1.324,0,0,0-.646-1.136l-2.933-2a1.313,1.313,0,0,0-.682-.185l-2.014-.027v-6.63Z" transform="translate(34.469 40.654)" fill="#fff" fill-rule="evenodd"/><path d="M3.741,1048.86c6.214.069,19.188.069,19.188.069l-.026,6.542H3.734a1.978,1.978,0,0,1-1.983-1.983v-2.644a1.979,1.979,0,0,1,1.983-1.983Z" transform="translate(0 45.208)" fill="#fff"/><path d="M3.754,1038.111v26.124c6.563.037,15.84.05,15.864.05v-8.99H28.21a1.978,1.978,0,0,0,1.983-1.983v-2.644a1.979,1.979,0,0,0-1.983-1.983H19.617V1038.11Z" transform="translate(3.292 27.535)" fill="#fff" fill-rule="evenodd"/><rect width="43.625" height="6.61" rx="0.75" transform="translate(1.758 1056.392)" fill="#fff"/><path d="M3.6,1026.6a1.322,1.322,0,0,0-1.2,1.931l7.932,15.864a1.322,1.322,0,0,0,1.183.728H29.36a1.322,1.322,0,0,0,0-2.644H12.329l-7.565-15.13A1.321,1.321,0,0,0,3.6,1026.6Z" transform="translate(0.82 8.614)" fill="#fff" fill-rule="evenodd"/></g></g></svg>