<svg xmlns="http://www.w3.org/2000/svg" width="59.942" height="58.736" viewBox="0 0 59.942 58.736"><g transform="translate(1701.5 749.5)"><g transform="translate(-1704 -753)"><path d="M72.341,42.013l-4.795-7.318a3.882,3.882,0,0,1-.442-1.451A18.836,18.836,0,0,0,51.838,16.4V32.424A4.5,4.5,0,0,1,47.359,36.9a38.527,38.527,0,0,0-15.014,3.091,4.453,4.453,0,0,1-1.766.379H30.2a21.628,21.628,0,0,0,6.813,10.851,2.332,2.332,0,0,1,.883,1.829V63.9a1.65,1.65,0,0,0,1.514,1.64l16.213,1.451a1.659,1.659,0,0,0,1.766-1.64V57.6a.9.9,0,0,1,.883-.883h5.678a3.124,3.124,0,0,0,3.154-3.154v-7.57a.632.632,0,0,1,.631-.631h2.776A2.2,2.2,0,0,0,72.341,42.013Z" transform="translate(-10.225 -4.762)" fill="rgba(255,255,255,0.9)"/><path d="M20.732,32.015a41.9,41.9,0,0,1,16.4-3.344,1,1,0,0,0,1.009-1.009V7.159A1,1,0,0,0,37.134,6.15a9.317,9.317,0,0,0-1.325.063h-.063v-1.7A1,1,0,0,0,34.737,3.5,37.485,37.485,0,0,0,20.353,6.339,37.485,37.485,0,0,0,5.97,3.5,1.013,1.013,0,0,0,4.9,4.509v1.7H4.834c-.442,0-.883-.063-1.325-.063A1,1,0,0,0,2.5,7.159V27.6a1,1,0,0,0,1.009,1.009,41.9,41.9,0,0,1,16.4,3.344.8.8,0,0,0,.379.063A.539.539,0,0,0,20.732,32.015ZM21.3,8.168A33.64,33.64,0,0,1,33.664,5.582v19.43A38.487,38.487,0,0,0,21.3,27.473V8.168Zm-2.019,19.3a36.865,36.865,0,0,0-12.365-2.46V5.519A36.415,36.415,0,0,1,19.281,8.105Z" fill="rgba(255,255,255,0.9)"/><path d="M13.383,13.652a38.873,38.873,0,0,1,6.435,1.325,2.732,2.732,0,0,0,.315.063,1.025,1.025,0,0,0,.946-.694,1,1,0,0,0-.694-1.262,41.354,41.354,0,0,0-6.75-1.388,1.052,1.052,0,0,0-1.136.883,1.68,1.68,0,0,0,.189.757A1.013,1.013,0,0,0,13.383,13.652Z" transform="translate(-3.691 -3.023)" fill="rgba(255,255,255,0.9)"/><path d="M13.383,19.752a38.873,38.873,0,0,1,6.435,1.325,2.732,2.732,0,0,0,.315.063,1.025,1.025,0,0,0,.946-.694,1,1,0,0,0-.694-1.262,41.354,41.354,0,0,0-6.75-1.388,1,1,0,0,0-1.136.883,1.68,1.68,0,0,0,.189.757A1.013,1.013,0,0,0,13.383,19.752Z" transform="translate(-3.691 -5.275)" fill="rgba(255,255,255,0.9)"/><path d="M13.346,25.952a36.891,36.891,0,0,1,6.372,1.325c.126,0,.189.063.315.063a1.025,1.025,0,0,0,.946-.694,1,1,0,0,0-.694-1.262A41.354,41.354,0,0,0,13.536,24a1.052,1.052,0,0,0-1.136.883,1.68,1.68,0,0,0,.189.757A3.859,3.859,0,0,0,13.346,25.952Z" transform="translate(-3.655 -7.564)" fill="rgba(255,255,255,0.9)"/><path d="M13.383,32.052a38.873,38.873,0,0,1,6.435,1.325,2.732,2.732,0,0,0,.315.063,1.025,1.025,0,0,0,.946-.694,1,1,0,0,0-.694-1.262,41.354,41.354,0,0,0-6.75-1.388,1,1,0,0,0-1.136.883,1.68,1.68,0,0,0,.189.757A1.013,1.013,0,0,0,13.383,32.052Z" transform="translate(-3.691 -9.815)" fill="rgba(255,255,255,0.9)"/><path d="M42.857,11.6a35.637,35.637,0,0,0-6.75,1.388.9.9,0,0,0-.568.5,1.055,1.055,0,0,0-.063.757.948.948,0,0,0,.946.694.569.569,0,0,0,.315-.063,31.655,31.655,0,0,1,6.372-1.262,1.1,1.1,0,0,0,.694-.379.829.829,0,0,0,.189-.757A1.156,1.156,0,0,0,42.857,11.6Z" transform="translate(-12.157 -2.99)" fill="rgba(255,255,255,0.9)"/><path d="M42.828,17.8h0a35.637,35.637,0,0,0-6.75,1.388,1.078,1.078,0,0,0-.694,1.262.948.948,0,0,0,.946.694.569.569,0,0,0,.315-.063,36.891,36.891,0,0,1,6.372-1.325,1.1,1.1,0,0,0,.694-.379.829.829,0,0,0,.189-.757A.944.944,0,0,0,42.828,17.8Z" transform="translate(-12.128 -5.275)" fill="rgba(255,255,255,0.9)"/><path d="M42.857,23.9h0a35.637,35.637,0,0,0-6.75,1.388.9.9,0,0,0-.568.5,1.055,1.055,0,0,0-.063.757.948.948,0,0,0,.946.694.569.569,0,0,0,.315-.063,36.891,36.891,0,0,1,6.372-1.325,1.1,1.1,0,0,0,.694-.379.786.786,0,0,0,.189-.757A1.1,1.1,0,0,0,42.857,23.9Z" transform="translate(-12.157 -7.527)" fill="rgba(255,255,255,0.9)"/><path d="M42.828,30h0a35.636,35.636,0,0,0-6.75,1.388,1.078,1.078,0,0,0-.694,1.262.948.948,0,0,0,.946.694.569.569,0,0,0,.315-.063,31.655,31.655,0,0,1,6.372-1.262,1.1,1.1,0,0,0,.694-.379.829.829,0,0,0,.189-.757A1.038,1.038,0,0,0,42.828,30Z" transform="translate(-12.128 -9.782)" fill="rgba(255,255,255,0.9)"/></g></g></svg>