<svg xmlns="http://www.w3.org/2000/svg" width="95.051" height="98.878" viewBox="0 0 95.051 98.878"><path d="M44,36.9c.58,1.7,1.93,1.927,0,2.568l-5.139,2.568L33.721,36.9c-.676-2.009.161-3.3,2.571-5.142l5.142,2.568C42.064,35.11,43.8,36.3,44,36.9Z" transform="translate(-0.375 -0.356)" fill="#366cad"/><path d="M38.837,16.143a6.867,6.867,0,0,0-5.142,0c-.9.3-1.514,1.659-2.571,2.574v7.715l7.713-2.574c2.119-2.41,3.071-3.636,2.571-5.142C41,17.518,40.4,16.926,38.837,16.143Z" transform="translate(-0.349 -0.175)" fill="#366cad"/><path d="M60.177,26.595l-.58-.071c-.3.1-2.5-1.747-5.136-2.574-1.271-.438-1.287.5-2.574,0-1.823.618-2.127,2.141-2.571,5.142s-1.011,7.261,0,10.282c.268.816,1.557,1.549,2.571,2.568l2.574,2.574h2.563c3.351-1.462,4.632-4.966,5.147-5.142,1.2-.723,2.147-2.869,2.574-5.142.405-2.283.7-3.017,0-5.142A3.574,3.574,0,0,0,60.177,26.595Z" transform="translate(-0.546 -0.267)" fill="#366cad"/><path d="M59.72,49.921v5.142a9.149,9.149,0,0,0,5.147,2.574L70,55.063l-2.568-7.716Z" transform="translate(-0.669 -0.531)" fill="#366cad"/><path d="M90.683,49.91c-3.428-3.8-5.255-4.255-10.282-2.574H77.833c-2.388,2.108-3.487,3.74-5.142,7.716-1.616,3.794-3.3,8.1-2.574,10.282a49.346,49.346,0,0,0,5.147,5.141c3.209,2.645,4.742,4.255,5.136,5.142l10.282-2.574c1.106-.361,5.4-9.511,5.142-10.278C93.761,56.569,92.786,52.281,90.683,49.91Z" transform="translate(-0.784 -0.52)" fill="#366cad"/><path d="M82.272,98.741c-.027-.17-.17-.509-.082-.509-1.927-2.739-10.174-9.237-10.282-10.282-.121-1.112-2.42-5.109-5.141-7.71C65.6,78.394,65.491,76.981,64.2,75.1c-1.292-1.868-3.7-5.716-5.147-7.716l-9.7-6.088c-1.407-.756-9.505-.487-20.779-12.407l-.372-7.211c-1.52-1.851-4.665-6.275-5.142-7.71-2.97-8.86-1-16.093-2.571-28.275l-5.72-3.833L7.934.549A52.744,52.744,0,0,0,0,0V98.878H82.5Z" fill="#366cad"/></svg>