<svg xmlns="http://www.w3.org/2000/svg" width="111.555" height="78.741" viewBox="0 0 111.555 78.741"><g transform="translate(-20.3 -80.053)"><g transform="translate(20.3 80.053)"><g transform="translate(0 0)"><rect width="6.486" height="4.79" transform="translate(67.327 63.534)" fill="#fff"/><path d="M243.649,171.471h1a5.578,5.578,0,0,0-.973-2.333l-.7.7a1.166,1.166,0,0,0-.859,1.133l-1.481,1.041a1.6,1.6,0,0,1-.647,1.27V175a.947.947,0,1,1-1.894,0V173.3a1.6,1.6,0,0,1-.667-1.231l-1.083-.909a.587.587,0,0,0-.528-1.044.945.945,0,0,1-.67-.278l-.7-.7a5.615,5.615,0,0,0-.967,2.338h.994a.947.947,0,1,1,0,1.894h-.988a5.68,5.68,0,0,0,.968,2.331l.7-.7a.947.947,0,0,1,1.34,1.339l-.7.7a5.577,5.577,0,0,0,2.327.966v-.992a.947.947,0,0,1,1.894,0v.984a5.669,5.669,0,0,0,2.323-.969l-.7-.7a.947.947,0,0,1,1.344-1.335l.693.7a5.643,5.643,0,0,0,.973-2.324h-.993a.947.947,0,0,1,0-1.894Z" transform="translate(-183 -147.331)" fill="#fff"/><rect width="3.453" height="2.354" transform="translate(2.876 67.664)" fill="#fff"/><rect width="6.523" height="4.79" transform="translate(37.714 44.189)" fill="#fff"/><path d="M244.128,162.108a.944.944,0,0,1,.868.186l.924.776a1.574,1.574,0,0,1,1.05-.014l1.492-1.048a.757.757,0,0,0,.612-.925l.7-.693a5.692,5.692,0,0,0-2.326-.963v.986a.947.947,0,0,1-1.894,0v-.993a5.606,5.606,0,0,0-2.331.962l.7.7A.947.947,0,0,1,244.128,162.108Z" transform="translate(-190.438 -139.917)" fill="#fff"/><rect width="3.455" height="2.354" transform="translate(12.275 67.664)" fill="#fff"/><rect width="6.519" height="4.79" transform="translate(78.575 63.534)" fill="#fff"/><rect width="6.486" height="4.801" transform="translate(67.327 53.856)" fill="#fff"/><rect width="3.455" height="2.397" transform="translate(2.597 58.577)" fill="#fff"/><rect width="3.449" height="2.397" transform="translate(12.039 58.577)" fill="#fff"/><rect width="8.524" height="11.206" transform="translate(51.479 67.459)" fill="#fff"/><rect width="6.519" height="4.79" transform="translate(26.432 63.534)" fill="#fff"/><path d="M38.421,280.207v-30.3H20.3v37.7H38.4l-.059-3.436v-.034ZM20.766,257.564a.947.947,0,0,1,.947-.947h5.349a.947.947,0,0,1,.947.947v4.25a.947.947,0,0,1-.947.947H21.713a.947.947,0,0,1-.947-.947ZM21,270.9V266.61a.947.947,0,0,1,.947-.947H27.3a.947.947,0,0,1,.947.947V270.9a.947.947,0,0,1-.947.947H21.95A.947.947,0,0,1,21,270.9Zm7.521,9.044a.947.947,0,0,1-.947.947H22.229a.947.947,0,0,1-.947-.947V275.7a.947.947,0,0,1,.947-.947h5.348a.947.947,0,0,1,.947.947v4.248ZM30.2,257.564a.947.947,0,0,1,.947-.947H36.5a.947.947,0,0,1,.947.947v4.25a.947.947,0,0,1-.947.947H31.15a.947.947,0,0,1-.947-.947Zm.242,9.046a.947.947,0,0,1,.947-.947h5.344a.947.947,0,0,1,.947.947V270.9a.947.947,0,0,1-.947.947H31.392a.947.947,0,0,1-.947-.947V266.61Zm7.479,13.335a.947.947,0,0,1-.947.947H31.628a.947.947,0,0,1-.947-.947V275.7a.947.947,0,0,1,.947-.947h5.349a.947.947,0,0,1,.947.947Z" transform="translate(-20.3 -208.98)" fill="#fff"/><rect width="6.519" height="4.801" transform="translate(26.432 53.856)" fill="#fff"/><rect width="6.523" height="4.801" transform="translate(37.714 53.856)" fill="#fff"/><rect width="3.455" height="2.355" transform="translate(11.797 49.531)" fill="#fff"/><rect width="6.523" height="4.79" transform="translate(37.714 63.534)" fill="#fff"/><rect width="3.455" height="2.355" transform="translate(2.361 49.531)" fill="#fff"/><rect width="6.519" height="4.79" transform="translate(26.432 44.189)" fill="#fff"/><rect width="6.486" height="4.79" transform="translate(67.327 44.189)" fill="#fff"/><rect width="3.454" height="2.355" transform="translate(105.196 49.531)" fill="#fff"/><rect width="6.519" height="4.801" transform="translate(78.575 53.856)" fill="#fff"/><rect width="3.455" height="2.397" transform="translate(105.474 58.577)" fill="#fff"/><rect width="3.449" height="2.397" transform="translate(96.038 58.577)" fill="#fff"/><path d="M433.032,249.906H414.985v30.983l-.034,6.832h18.115Zm-17.657,11.907v-4.249a.947.947,0,0,1,.947-.947h5.348a.947.947,0,0,1,.947.947v4.249a.947.947,0,0,1-.947.947h-5.348A.947.947,0,0,1,415.375,261.814Zm.28,4.8a.947.947,0,0,1,.947-.947h5.344a.947.947,0,0,1,.947.947V270.9a.947.947,0,0,1-.947.947H416.6a.947.947,0,0,1-.947-.947Zm7.474,13.335a.947.947,0,0,1-.947.947h-5.343a.947.947,0,0,1-.947-.947V275.7a.947.947,0,0,1,.947-.947h5.343a.947.947,0,0,1,.947.947Zm1.684-18.132v-4.249a.947.947,0,0,1,.947-.947h5.348a.947.947,0,0,1,.947.947v4.249a.947.947,0,0,1-.947.947H425.76A.947.947,0,0,1,424.813,261.814Zm.278,4.8a.947.947,0,0,1,.947-.947h5.349a.947.947,0,0,1,.947.947V270.9a.947.947,0,0,1-.947.947h-5.349a.947.947,0,0,1-.947-.947Zm7.479,13.335a.947.947,0,0,1-.947.947h-5.354a.947.947,0,0,1-.947-.947V275.7a.947.947,0,0,1,.947-.947h5.354a.947.947,0,0,1,.947.947Z" transform="translate(-321.511 -208.98)" fill="#fff"/><rect width="3.46" height="2.354" transform="translate(105.705 67.664)" fill="#fff"/><rect width="3.449" height="2.354" transform="translate(96.274 67.664)" fill="#fff"/><rect width="3.454" height="2.355" transform="translate(95.759 49.531)" fill="#fff"/><rect width="6.519" height="4.79" transform="translate(78.575 44.189)" fill="#fff"/><path d="M173.569,108.141H156.735a.947.947,0,0,1-.947-.947V97.011a1.62,1.62,0,0,0-.87-1.481c-2.877-1.609-5.139-2.963-6.957-4.05a35.365,35.365,0,0,0-6.038-3.215v-.5a.967.967,0,0,0,.023-.2,1.03,1.03,0,0,0-.009-.136c-.005-.164-.01-.34-.014-.521V85.725H141.9c0-.185,0-.368,0-.545a4.06,4.06,0,0,0,3.788-.909,1.982,1.982,0,0,1,1.338-.546,2.867,2.867,0,0,1,1.574.565,1.005,1.005,0,0,0,1.645-.776V78.8a1,1,0,0,0-.473-.853,6.2,6.2,0,0,0-2.965-.892A3.336,3.336,0,0,0,144.3,78.1a2.086,2.086,0,0,1-1.391.378,3.569,3.569,0,0,1-1.216-.2,1,1,0,0,0-.884-.526h-.791a1,1,0,0,0-1.005,1.005c0,2.531.024,4.825.074,6.96h0V88.2c-1.476.416-3.326,1.517-6.307,3.3-1.815,1.083-4.073,2.43-6.923,4.021a1.675,1.675,0,0,0-.852,1.49v10.183a.947.947,0,0,1-.947.947H107.188a2.651,2.651,0,0,0-2.595,2.637V148.3l-.075,3.927.059,3.453,29.586.04V143.565a.947.947,0,0,1,.947-.947h10.418a.947.947,0,0,1,.947.947v12.156l29.65.07.034-6.834v-38.18A2.617,2.617,0,0,0,173.569,108.141Zm-54.146,38.182a.947.947,0,0,1-.947.947h-8.413a.947.947,0,0,1-.947-.947V139.64a.947.947,0,0,1,.947-.947h8.413a.947.947,0,0,1,.947.947Zm0-9.667a.947.947,0,0,1-.947.947h-8.413a.947.947,0,0,1-.947-.947v-6.695a.947.947,0,0,1,.947-.947h8.413a.947.947,0,0,1,.947.947Zm0-9.678a.947.947,0,0,1-.947.947h-8.413a.947.947,0,0,1-.947-.947v-6.684a.947.947,0,0,1,.947-.947h8.413a.947.947,0,0,1,.947.947Zm11.286,19.345a.947.947,0,0,1-.947.947h-8.417a.947.947,0,0,1-.947-.947V139.64a.947.947,0,0,1,.947-.947h8.417a.947.947,0,0,1,.947.947Zm0-9.667a.947.947,0,0,1-.947.947h-8.417a.947.947,0,0,1-.947-.947v-6.695a.947.947,0,0,1,.947-.947h8.417a.947.947,0,0,1,.947.947Zm0-9.678a.947.947,0,0,1-.947.947h-8.417a.947.947,0,0,1-.947-.947v-6.684a.947.947,0,0,1,.947-.947h8.417a.947.947,0,0,1,.947.947Zm12.2-46.488a3.883,3.883,0,0,0,2.851-1.007,1.333,1.333,0,0,1,1.046-.419,3.716,3.716,0,0,1,1.427.347v2.482a4.275,4.275,0,0,0-1.208-.179,3.968,3.968,0,0,0-2.67,1.05c-.786.7-1.769.708-3,.072a1,1,0,0,0-.3-.1q-.015-1.237-.019-2.555A5.4,5.4,0,0,0,142.91,80.49Zm-2.3,29.205a7.556,7.556,0,1,1,7.589-7.577A7.562,7.562,0,0,1,140.609,109.7Zm19.675,36.628a.947.947,0,0,1-.947.947h-8.38a.947.947,0,0,1-.947-.947V139.64a.947.947,0,0,1,.947-.947h8.38a.947.947,0,0,1,.947.947Zm0-9.667a.947.947,0,0,1-.947.947h-8.38a.947.947,0,0,1-.947-.947v-6.695a.947.947,0,0,1,.947-.947h8.38a.947.947,0,0,1,.947.947Zm0-9.678a.947.947,0,0,1-.947.947h-8.38a.947.947,0,0,1-.947-.947v-6.684a.947.947,0,0,1,.947-.947h8.38a.947.947,0,0,1,.947.947Zm11.282,19.345a.947.947,0,0,1-.947.947h-8.413a.947.947,0,0,1-.947-.947V139.64a.947.947,0,0,1,.947-.947h8.413a.947.947,0,0,1,.947.947Zm0-9.667a.947.947,0,0,1-.947.947h-8.413a.947.947,0,0,1-.947-.947v-6.695a.947.947,0,0,1,.947-.947h8.413a.947.947,0,0,1,.947.947Zm0-9.678a.947.947,0,0,1-.947.947h-8.413a.947.947,0,0,1-.947-.947v-6.684a.947.947,0,0,1,.947-.947h8.413a.947.947,0,0,1,.947.947Z" transform="translate(-84.578 -77.053)" fill="#fff"/></g></g></g></svg>