<svg xmlns="http://www.w3.org/2000/svg" width="64.567" height="45.444" viewBox="0 0 64.567 45.444"><g transform="translate(1090 350.112)" opacity="0.9"><path d="M14.925,96.055l-.611,2.852L8,98.3V63.262c0-9.98,24.849-9.98,32.386-5.5,7.333-4.481,32.182-4.481,32.182,5.5V98.3l-6.314.611-.407-2.852c-2.852-2.648-19.35-2.648-22.2,0l-3.259,4.277-3.463-4.277C34.275,93.407,17.573,93.407,14.925,96.055Zm1.222-29.941a43.236,43.236,0,0,1,17.72-.611v3.463c-5.7-1.018-13.239-.815-17.72.815Zm48.273,0A42.975,42.975,0,0,0,46.7,65.5v3.463c5.7-1.018,13.239-.815,17.72.815Zm0,17.313C59.328,82,52.4,82,46.7,82.815v3.463c5.7-1.018,13.239-.611,17.72.815Zm0-8.555c-5.092-1.629-12.017-1.629-17.72-.815v3.666c5.7-1.018,13.239-.815,17.72.815ZM16.147,83.426C21.443,82,28.368,82,33.868,82.815v3.463c-5.7-1.018-13.239-.611-17.72.815Zm0-8.555c5.3-1.629,12.221-1.629,17.72-.815v3.666c-5.7-1.018-13.239-.815-17.72.815ZM38.552,93V60.817c-6.11-3.87-27.09-3.055-27.09,2.444V95.036C12.481,89.74,32.442,89.129,38.552,93Zm3.463-32.182V93c6.11-3.87,26.071-3.259,27.09,2.037V63.262C69.1,57.762,48.329,56.948,42.015,60.817Z" transform="translate(-1098 -405)" fill="rgba(255,255,255,0.9)" fill-rule="evenodd"/></g></svg>