<svg xmlns="http://www.w3.org/2000/svg" width="103.305" height="91.562" viewBox="0 0 103.305 91.562"><g transform="translate(-11.335 -15.656)"><path d="M94.916,35.6a20,20,0,0,1-7.148,15.363,6.321,6.321,0,0,0-.284-.622c-.149-.338-.324-.676-.5-1-.081-.122-.149-.257-.23-.392A19.823,19.823,0,0,0,82.7,43.861a5.567,5.567,0,0,0-.527-.459,4.417,4.417,0,0,0-.486-.392c-.176-.162-.378-.3-.567-.446a6.758,6.758,0,0,0-.784-.5c-.23-.162-.459-.311-.716-.459s-.622-.392-.946-.554-.878-.473-1.351-.676a26.764,26.764,0,0,0,.311-3.324V35.51a9.933,9.933,0,0,0-.135-1.351c-.054-.392-.108-.811-.176-1.2a3.457,3.457,0,0,0-.068-.365,7.472,7.472,0,0,0-.149-.757A3.157,3.157,0,0,0,76.9,31a21.616,21.616,0,0,0-.757-2.459c-.162-.459-.338-.919-.54-1.351a25.59,25.59,0,0,0-1.351-2.581l-.54-.865c-.2-.324-.419-.649-.662-.973a1.865,1.865,0,0,0-.257-.378c-.257-.365-.54-.716-.824-1.067a6.024,6.024,0,0,0-.473-.554,12.483,12.483,0,0,0-.986-1.081l-.581-.581c-.392-.392-.8-.757-1.216-1.108s-.811-.662-1.216-.973A20.119,20.119,0,0,1,94.916,35.6Z" transform="translate(19.725)" fill="#366cad"/><path d="M105.317,59.3a17.052,17.052,0,0,1-4.256,11.336,15.985,15.985,0,0,1-11.917,5.4H28.529a17.822,17.822,0,0,1-5.067-.743A17.376,17.376,0,0,1,25.11,41.732a1.959,1.959,0,0,0,1.554-2.094c0-.338,0-.716,0-1.081a13.2,13.2,0,0,1,22.795-9.08,1.905,1.905,0,0,0,1.757.581A1.959,1.959,0,0,0,52.661,28.9,21.214,21.214,0,0,1,82.387,18.411H82.5c.554.3,1.081.622,1.608.973h0c.189.108.365.243.554.378s.5.365.743.567.351.27.527.419.7.622,1.04.946.676.676.986,1.027a11.377,11.377,0,0,1,.838.973,1.676,1.676,0,0,1,.189.243c.257.324.5.649.73,1s.527.784.757,1.176.473.824.689,1.243a12.405,12.405,0,0,1,.595,1.351c.149.324.3.676.419,1.027l.162.446c.122.351.23.716.338,1.081a.257.257,0,0,1,0,.095c.122.473.243.919.324,1.351s.149.757.2,1.121a6.753,6.753,0,0,1,.095.7v.77a1.6,1.6,0,0,1,0,.365.716.716,0,0,1,0,.176c0,.392,0,.77,0,1.149a20.267,20.267,0,0,1-.419,4.162,1.959,1.959,0,0,0,1.27,2.243,16.511,16.511,0,0,1,10.391,11.174,17.565,17.565,0,0,1,.784,4.729Z" transform="translate(0 0.061)" fill="#366cad"/><path d="M35.543,78.092a1.351,1.351,0,0,0-1.23-1.689H27.22l4.9-13.093H45.542l-3.486,6.337A1.351,1.351,0,0,0,43.2,71.566h5.4l-17.4,18.917Z" transform="translate(5.579 16.735)" fill="#366cad"/><path d="M56.543,78.092a1.351,1.351,0,0,0-1.23-1.689H48.22l4.9-13.093H66.542l-3.486,6.337A1.351,1.351,0,0,0,64.2,71.566h5.4l-17.4,18.917Z" transform="translate(12.954 16.735)" fill="#366cad"/></g></svg>