<svg xmlns="http://www.w3.org/2000/svg" width="39.734" height="40.801" viewBox="0 0 39.734 40.801"><g transform="translate(893.78 463.02)"><path d="M4.22,34.885a2.547,2.547,0,0,1,2.543-2.543H12.4a2.547,2.547,0,0,1,2.569,2.543v6.358a2.547,2.547,0,0,1-2.56,2.539H6.772a2.547,2.547,0,0,1-2.543-2.543Zm22.692-9.33H21.27A2.547,2.547,0,0,0,18.727,28.1V41.243a2.547,2.547,0,0,0,2.534,2.539H26.9a2.547,2.547,0,0,0,2.543-2.543V28.076a2.547,2.547,0,0,0-2.534-2.521ZM43.954,5.523v35.72a2.547,2.547,0,0,1-2.543,2.539H35.769A2.547,2.547,0,0,1,33.2,41.243V5.523a2.547,2.547,0,0,1,2.56-2.534H41.4A2.547,2.547,0,0,1,43.954,5.523Zm-3.545,1H36.763V40.245h3.645ZM4.22,12.562A9.582,9.582,0,1,1,13.8,22.144,9.582,9.582,0,0,1,4.22,12.562Zm8.415.482,4.144,4.144,1.649-1.649-3.472-3.472V6.834H12.635Z" transform="translate(-898 -466)" fill="rgba(255,255,255,0.9)"/></g></svg>