<svg xmlns="http://www.w3.org/2000/svg" width="62.555" height="97.449" viewBox="0 0 62.555 97.449"><g transform="translate(1302.013 221.867)"><path d="M56.667,61.125A16.308,16.308,0,1,1,65.823,58.3,16.3,16.3,0,0,1,56.667,61.125Zm.01,14.6a1.887,1.887,0,0,0,1.88-1.895l-.029-7.9a1.887,1.887,0,0,0-1.887-1.88h-.008a1.887,1.887,0,0,0-1.88,1.895l.029,7.9a1.887,1.887,0,0,0,1.887,1.88Zm0-50.925a1.887,1.887,0,0,0,1.88-1.895l-.029-7.9a1.887,1.887,0,0,0-1.887-1.88h-.008a1.887,1.887,0,0,0-1.88,1.895l.029,7.9A1.887,1.887,0,0,0,56.67,24.8ZM78.142,67.036a1.888,1.888,0,0,0,.034-2.669l-5.507-5.656a1.887,1.887,0,0,0-2.7,2.635L75.474,67a1.887,1.887,0,0,0,2.669.034ZM42.768,30.4a1.888,1.888,0,0,0,.034-2.669l-5.51-5.657a1.887,1.887,0,1,0-2.7,2.635L40.1,30.37a1.887,1.887,0,0,0,2.669.034ZM87.541,45.875a1.887,1.887,0,0,0-1.828-1.944l-7.89-.243a1.85,1.85,0,0,0-1.944,1.828,1.887,1.887,0,0,0,1.828,1.944l7.89.243h.059A1.886,1.886,0,0,0,87.541,45.875ZM36.65,44.1a1.887,1.887,0,0,0-1.828-1.944l-7.89-.243a1.887,1.887,0,0,0-.116,3.772l7.89.243h.059A1.887,1.887,0,0,0,36.65,44.1Zm36.981-12,5.846-5.308a1.887,1.887,0,1,0-2.538-2.794L71.094,29.3A1.887,1.887,0,0,0,73.632,32.1ZM35.786,66.171l5.848-5.306a1.888,1.888,0,1,0-2.535-2.8l-5.848,5.306a1.888,1.888,0,0,0,2.535,2.8Zm20.146,44.222a1.888,1.888,0,0,0,.877-2.521c-2.2-4.54-.639-7.881,1.165-11.749,1.929-4.141,4.116-8.834,1.141-14.988a1.888,1.888,0,1,0-3.4,1.644c2.2,4.54.639,7.881-1.165,11.749-1.929,4.141-4.116,8.834-1.141,14.988a1.888,1.888,0,0,0,1.7,1.066A1.918,1.918,0,0,0,55.932,110.394Zm-12.786,0a1.888,1.888,0,0,0,.877-2.521c-2.2-4.54-.639-7.881,1.165-11.749,1.929-4.141,4.116-8.834,1.141-14.988a1.888,1.888,0,1,0-3.4,1.644c2.2,4.54.639,7.881-1.165,11.749-1.929,4.141-4.116,8.834-1.141,14.988a1.888,1.888,0,0,0,1.7,1.066A1.918,1.918,0,0,0,43.147,110.394Zm25.572,0a1.888,1.888,0,0,0,.877-2.521c-2.2-4.54-.639-7.881,1.165-11.749,1.929-4.141,4.116-8.834,1.141-14.988a1.888,1.888,0,1,0-3.4,1.644c2.2,4.54.639,7.881-1.165,11.749-1.929,4.141-4.116,8.834-1.141,14.988a1.888,1.888,0,0,0,1.7,1.066A1.914,1.914,0,0,0,68.718,110.394Z" transform="translate(-1327 -235)" fill="#366cad"/></g></svg>