<svg xmlns="http://www.w3.org/2000/svg" width="52.358" height="65.108" viewBox="0 0 52.358 65.108">
  <g id="noun_Fire_2052342" transform="translate(0 0)">
    <g id="Group_2" data-name="Group 2">
      <path id="Path_26" data-name="Path 26" d="M42.78,18.5c3.459,6.714,1.628,10.377,1.628,10.377C38.915,10.563,23.044,1,23.044,1,30.572,9.749,26.1,18.5,26.1,18.5a24.551,24.551,0,0,0-7.732-7.732,19.035,19.035,0,0,1-1.017,21.16c-3.662-5.087-.407-11.394-.407-11.394a30.176,30.176,0,0,0-8.952,17.7C6.157,36.2,6.36,31.113,6.36,31.113-.558,53.9,9.412,65.295,20.806,65.905,22.027,63.26,28.945,53.7,20.4,45.762c0,0,9.563-1.017,13.632,14.243,0,0,4.273-9.563-4.476-14.243,0,0,11.394,1.831,11.6,12a15.03,15.03,0,0,1-2.645,8.342c5.9-.2,11.6-4.069,14.446-8.546C64.755,39.658,42.78,18.5,42.78,18.5Z" transform="translate(-4.079 -1)" fill="#fff"/>
    </g>
  </g>
</svg>
