<svg xmlns="http://www.w3.org/2000/svg" width="41.442" height="64.56" viewBox="0 0 41.442 64.56">
  <g id="noun_heat_wave_68599" data-name="noun_heat wave_68599" transform="translate(0 0)">
    <path id="Path_31" data-name="Path 31" d="M45.975,44.927a10.8,10.8,0,1,1,6.066-1.871A10.8,10.8,0,0,1,45.975,44.927Zm.007,9.675a1.25,1.25,0,0,0,1.245-1.255l-.019-5.231a1.25,1.25,0,0,0-1.25-1.245h-.005a1.25,1.25,0,0,0-1.245,1.255l.019,5.231a1.25,1.25,0,0,0,1.25,1.245Zm0-33.737a1.25,1.25,0,0,0,1.245-1.255l-.019-5.231a1.25,1.25,0,0,0-1.25-1.245h-.005a1.25,1.25,0,0,0-1.245,1.255l.019,5.231a1.25,1.25,0,0,0,1.25,1.245ZM60.2,48.843a1.251,1.251,0,0,0,.023-1.768l-3.648-3.747a1.25,1.25,0,0,0-1.79,1.745l3.648,3.747a1.25,1.25,0,0,0,1.768.023ZM36.767,24.575a1.251,1.251,0,0,0,.023-1.768l-3.65-3.748a1.25,1.25,0,1,0-1.79,1.745L35,24.553a1.25,1.25,0,0,0,1.768.023ZM66.429,34.825a1.25,1.25,0,0,0-1.211-1.288l-5.227-.161A1.226,1.226,0,0,0,58.7,34.587a1.25,1.25,0,0,0,1.211,1.288l5.227.161h.039A1.249,1.249,0,0,0,66.429,34.825ZM32.714,33.648A1.25,1.25,0,0,0,31.5,32.361L26.276,32.2a1.25,1.25,0,0,0-.077,2.5l5.227.161h.039A1.25,1.25,0,0,0,32.714,33.648Zm24.5-7.952,3.873-3.517a1.25,1.25,0,0,0-1.681-1.851l-3.873,3.517A1.25,1.25,0,0,0,57.214,25.7ZM32.141,48.271l3.874-3.515a1.25,1.25,0,1,0-1.68-1.853l-3.874,3.515a1.25,1.25,0,0,0,1.68,1.853Zm13.347,29.3a1.251,1.251,0,0,0,.581-1.67c-1.455-3.007-.423-5.221.772-7.784,1.278-2.743,2.727-5.852.756-9.929a1.251,1.251,0,1,0-2.251,1.089c1.455,3.007.423,5.221-.772,7.784-1.278,2.743-2.727,5.852-.756,9.929a1.251,1.251,0,0,0,1.127.706A1.271,1.271,0,0,0,45.488,77.568Zm-8.471,0A1.251,1.251,0,0,0,37.6,75.9c-1.455-3.007-.423-5.221.772-7.784,1.278-2.743,2.727-5.852.756-9.929a1.251,1.251,0,1,0-2.251,1.089c1.455,3.007.423,5.221-.772,7.784-1.278,2.743-2.727,5.852-.756,9.929a1.251,1.251,0,0,0,1.127.706A1.271,1.271,0,0,0,37.018,77.568Zm16.941,0a1.251,1.251,0,0,0,.581-1.67c-1.455-3.007-.423-5.221.772-7.784,1.278-2.743,2.727-5.852.756-9.929a1.251,1.251,0,1,0-2.251,1.089c1.455,3.007.423,5.221-.772,7.784-1.278,2.743-2.727,5.852-.756,9.929a1.251,1.251,0,0,0,1.127.706A1.268,1.268,0,0,0,53.959,77.568Z" transform="translate(-24.987 -13.133)" fill="#fff"/>
  </g>
</svg>
