<svg xmlns="http://www.w3.org/2000/svg" width="73.753" height="65.368" viewBox="0 0 73.753 65.368">
  <g id="thunder" transform="translate(0 0)">
    <path id="Path_27" data-name="Path 27" d="M87.073,29.9a14.277,14.277,0,0,1-5.1,10.968,4.513,4.513,0,0,0-.2-.444c-.106-.241-.232-.482-.357-.714-.058-.087-.106-.183-.164-.28a14.152,14.152,0,0,0-2.894-3.637,3.974,3.974,0,0,0-.376-.328,3.153,3.153,0,0,0-.347-.28c-.125-.116-.27-.212-.405-.318a4.824,4.824,0,0,0-.559-.357c-.164-.116-.328-.222-.511-.328s-.444-.28-.675-.4-.627-.338-.965-.482a19.108,19.108,0,0,0,.222-2.373v-1.1a7.092,7.092,0,0,0-.1-.965c-.039-.28-.077-.579-.125-.859a2.471,2.471,0,0,0-.048-.26,5.333,5.333,0,0,0-.106-.54,2.254,2.254,0,0,0-.145-.6,15.433,15.433,0,0,0-.54-1.756c-.116-.328-.241-.656-.386-.965a18.269,18.269,0,0,0-.965-1.842l-.386-.617c-.145-.232-.3-.463-.473-.695a1.331,1.331,0,0,0-.183-.27c-.183-.26-.386-.511-.588-.762a4.3,4.3,0,0,0-.338-.4,8.912,8.912,0,0,0-.7-.772l-.415-.415c-.28-.28-.569-.54-.868-.791s-.579-.473-.868-.695A14.364,14.364,0,0,1,87.073,29.9Z" transform="translate(-13.32 -15.656)" fill="#fff"/>
    <path id="Path_28" data-name="Path 28" d="M78.431,46.863a12.174,12.174,0,0,1-3.039,8.093,11.412,11.412,0,0,1-8.508,3.859H23.61a12.724,12.724,0,0,1-3.617-.531A12.405,12.405,0,0,1,21.17,34.322a1.4,1.4,0,0,0,1.109-1.5v-.772a9.425,9.425,0,0,1,16.274-6.482,1.36,1.36,0,0,0,1.254.415,1.4,1.4,0,0,0,1.032-.83,15.145,15.145,0,0,1,21.222-7.486h.077c.4.212.772.444,1.148.695h0c.135.077.26.174.4.27s.357.26.531.405.251.193.376.3.5.444.743.675.482.482.7.733a8.121,8.121,0,0,1,.6.695,1.2,1.2,0,0,1,.135.174c.183.232.357.463.521.714s.376.559.54.839.338.588.492.887a8.856,8.856,0,0,1,.424.965c.106.232.212.482.3.733l.116.318c.087.251.164.511.241.772a.183.183,0,0,1,0,.068c.087.338.174.656.232.965s.106.54.145.8a4.82,4.82,0,0,1,.068.5v.55a1.138,1.138,0,0,1,0,.26.511.511,0,0,1,0,.125c0,.28,0,.55,0,.82a14.469,14.469,0,0,1-.3,2.971,1.4,1.4,0,0,0,.907,1.6,11.788,11.788,0,0,1,7.418,7.978,12.54,12.54,0,0,1,.559,3.376Z" transform="translate(-11.335 -15.662)" fill="#fff"/>
    <path id="Path_29" data-name="Path 29" d="M33.162,73.863a.965.965,0,0,0-.878-1.206H27.22l3.5-9.347H40.3l-2.489,4.524a.965.965,0,0,0,.82,1.37H42.49L30.066,82.709Z" transform="translate(-11.896 -17.34)" fill="#fff"/>
    <path id="Path_30" data-name="Path 30" d="M54.162,73.863a.965.965,0,0,0-.878-1.206H48.22l3.5-9.347H61.3l-2.489,4.524a.965.965,0,0,0,.82,1.37H63.49L51.066,82.709Z" transform="translate(-12.639 -17.34)" fill="#fff"/>
  </g>
</svg>
