<svg xmlns="http://www.w3.org/2000/svg" width="61.229" height="61.226" viewBox="0 0 61.229 61.226">
  <g id="noun_Earthquake_1633296" transform="translate(0 0)">
    <path id="Path_25" data-name="Path 25" d="M51.735,25.495h2.187a2.187,2.187,0,0,0,1.488-3.79L42.152,9.395a5.192,5.192,0,0,0-7.068-.005L21.819,21.705a2.187,2.187,0,0,0,1.488,3.79h2.187v13.12H8V69.23H25.494l5.248-9.184a1.093,1.093,0,0,0-.875-1.749H23.555a1.094,1.094,0,0,1-.817-1.82L34.33,43.435a1.324,1.324,0,0,1,2.245,1.3L34.721,50.3a1.093,1.093,0,0,0,1.037,1.44H43.29a1.093,1.093,0,0,1,.949,1.636L36.428,69.23h32.8V38.615H51.735Zm-9.294,3.637c-.049.051-3.355,3.4-3.4,3.446L40.8,38.615h-6.56v-6.56a1.876,1.876,0,0,1,.614-1.572l2.893-2.859-2.919-3.107a1.707,1.707,0,0,1-.184-2.1L38.171,17.4a1.435,1.435,0,0,1,2.55,1.275l-1.983,4.075,3.609,3.39A2.12,2.12,0,0,1,42.441,29.132Z" transform="translate(-8 -8.003)" fill="#fff"/>
  </g>
</svg>
