<svg xmlns="http://www.w3.org/2000/svg" width="71.806" height="63.456" viewBox="0 0 71.806 63.456">
  <g id="Group_14" data-name="Group 14" transform="translate(0 0)">
    <path id="Path_1" data-name="Path 1" d="M29.931,36.917a6.887,6.887,0,0,0-8.347-5.482A7.194,7.194,0,0,0,16.17,38.6v9.711c.711-.113,1.41-.248,2.12-.405a32.56,32.56,0,0,1,11.752-.631V46.234c0-2.595.012-5.2,0-7.8A9.919,9.919,0,0,0,29.931,36.917Z" transform="translate(1.29 -0.397)" fill="#fff"/>
    <path id="Path_2" data-name="Path 2" d="M29.931,36.917a6.887,6.887,0,0,0-8.347-5.482A7.194,7.194,0,0,0,16.17,38.6v9.711c.711-.113,1.41-.248,2.12-.405a32.56,32.56,0,0,1,11.752-.631V46.234c0-2.595.012-5.2,0-7.8A9.919,9.919,0,0,0,29.931,36.917Z" transform="translate(1.29 -0.397)" fill="#fff"/>
    <path id="Path_3" data-name="Path 3" d="M71.122,29.547c-.812-.62-1.636-1.241-2.436-1.861-1.286-1-2.583-1.985-3.858-2.966L53.234,15.8l-2.279-1.749c-3.519-2.684-7.038-5.4-10.546-8.087a6.038,6.038,0,0,0-1.827-.981c-.034-.012-.056-.012-.079-.022-.181-.056-.361-.1-.552-.147l-.316-.034c-.135-.012-.26-.012-.383-.012s-.26,0-.383.012c-.1.012-.226.022-.327.034-.181.045-.361.09-.542.147-.022.012-.056.012-.079.022a5.872,5.872,0,0,0-1.816.981c-4.286,3.27-8.561,6.564-12.836,9.836V12.155a1.6,1.6,0,0,0-1.59-1.59H13.634a1.6,1.6,0,0,0-1.59,1.6c.012,3.586.045,6.632-.045,9.665a2.946,2.946,0,0,1-.689,1.624c-1.827,1.421-3.655,2.819-5.493,4.229C5,28.3,4.192,28.926,3.392,29.546A3.689,3.689,0,0,0,1.609,32.6a3.02,3.02,0,0,0,.552,1.838,4.222,4.222,0,0,0,4.613,1.534,4.852,4.852,0,0,0,1.162-.518V53.165a43.55,43.55,0,0,0,5.143.1V40.453h.012V31.96a1.592,1.592,0,0,1,.056-.395Q24.4,22.988,35.591,14.353l.778-.576a1.936,1.936,0,0,1,.88-.294,1.839,1.839,0,0,1,.868.294l.778.576Q50.1,23,61.363,31.565c.012.135.045.26.045.395v8.493h.012V51a20.886,20.886,0,0,1,5.143.463V35.456a4.528,4.528,0,0,0,1.173.518,4.225,4.225,0,0,0,4.6-1.534,3.089,3.089,0,0,0,.542-1.838A3.626,3.626,0,0,0,71.122,29.547Z" transform="translate(-1.114 -4.767)" fill="#fff"/>
    <path id="Path_4" data-name="Path 4" d="M29.931,36.917a6.887,6.887,0,0,0-8.347-5.482A7.194,7.194,0,0,0,16.17,38.6v9.711c.711-.113,1.41-.248,2.12-.405a32.56,32.56,0,0,1,11.752-.631V46.234c0-2.595.012-5.2,0-7.8A9.919,9.919,0,0,0,29.931,36.917Z" transform="translate(1.29 -0.397)" fill="#fff"/>
    <path id="Path_5" data-name="Path 5" d="M29.931,36.917a6.887,6.887,0,0,0-8.347-5.482A7.194,7.194,0,0,0,16.17,38.6v9.711c.711-.113,1.41-.248,2.12-.405a32.56,32.56,0,0,1,11.752-.631V46.234c0-2.595.012-5.2,0-7.8A9.919,9.919,0,0,0,29.931,36.917Z" transform="translate(1.29 -0.397)" fill="#fff"/>
    <path id="Path_6" data-name="Path 6" d="M33.441,20.777v9.787h5.487V20.777Z" transform="translate(4.141 -2.124)" fill="#fff"/>
    <path id="Path_7" data-name="Path 7" d="M26.271,20.777v9.787h5.487V20.777Z" transform="translate(2.957 -2.124)" fill="#fff"/>
    <path id="Path_8" data-name="Path 8" d="M57.835,23.4,46.24,14.487l-2.28-1.749" transform="translate(5.877 -3.451)" fill="#fff"/>
    <path id="Path_9" data-name="Path 9" d="M62.507,53.523c-5.718-1.707-11.448-1.439-17.208-.172a48.454,48.454,0,0,1-19.823.237,1.653,1.653,0,0,0-.973.087c.291.212.57.447.876.634A31.04,31.04,0,0,0,43.484,59.09a60.893,60.893,0,0,0,7.983-1.435A56.378,56.378,0,0,1,66.145,56.58c1,.071,2,.206,3,.312A17.516,17.516,0,0,0,62.507,53.523Z" transform="translate(2.665 3.083)" fill="#fff"/>
    <path id="Path_10" data-name="Path 10" d="M36.165,47.767a30.182,30.182,0,0,0-15.384-.154,43.3,43.3,0,0,1-17.721.211,1.471,1.471,0,0,0-.869.078c.261.19.509.4.783.567a27.737,27.737,0,0,0,16.185,4.273A54.486,54.486,0,0,0,26.3,51.459a50.414,50.414,0,0,1,13.121-.96c.895.064,1.785.185,2.677.28A15.674,15.674,0,0,0,36.165,47.767Z" transform="translate(-1.018 2.154)" fill="#fff"/>
    <path id="Path_11" data-name="Path 11" d="M62.354,47.2a23.018,23.018,0,0,0-11.733-.118,33.017,33.017,0,0,1-13.516.161,1.129,1.129,0,0,0-.663.059c.2.144.388.305.6.432a21.156,21.156,0,0,0,12.345,3.26,41.58,41.58,0,0,0,5.444-.979,38.478,38.478,0,0,1,10.008-.733c.683.049,1.362.141,2.042.213A11.992,11.992,0,0,0,62.354,47.2Z" transform="translate(4.636 2.102)" fill="#fff"/>
    <path id="Path_12" data-name="Path 12" d="M27.1,56.065a23.018,23.018,0,0,0-11.733-.118,33.017,33.017,0,0,1-13.516.161,1.129,1.129,0,0,0-.663.059c.2.144.388.305.6.432a21.156,21.156,0,0,0,12.345,3.26,41.581,41.581,0,0,0,5.444-.979,38.478,38.478,0,0,1,10.008-.733c.683.049,1.362.141,2.042.213A11.975,11.975,0,0,0,27.1,56.065Z" transform="translate(-1.184 3.566)" fill="#fff"/>
  </g>
</svg>
