<svg xmlns="http://www.w3.org/2000/svg" width="62.753" height="65.279" viewBox="0 0 62.753 65.279">
  <g id="landslide" transform="translate(0)">
    <path id="Path_17" data-name="Path 17" d="M40.432,35.149c.383,1.121,1.274,1.272,0,1.7l-3.393,1.7-3.395-3.391c-.447-1.326.106-2.18,1.7-3.395l3.395,1.7C39.152,33.97,40.3,34.754,40.432,35.149Z" transform="translate(-11.63 -11.025)" fill="#fff"/>
    <path id="Path_18" data-name="Path 18" d="M36.216,15.973a4.533,4.533,0,0,0-3.395,0c-.6.2-1,1.1-1.7,1.7v5.093l5.092-1.7c1.4-1.591,2.028-2.4,1.7-3.395C37.647,16.88,37.246,16.49,36.216,15.973Z" transform="translate(-10.806 -5.431)" fill="#fff"/>
    <path id="Path_19" data-name="Path 19" d="M56.3,25.655l-.383-.047a29.165,29.165,0,0,0-3.391-1.7c-.839-.289-.85.332-1.7,0-1.2.408-1.4,1.413-1.7,3.395s-.667,4.794,0,6.788c.177.539,1.028,1.023,1.7,1.7l1.7,1.7h1.692c2.212-.965,3.058-3.278,3.4-3.395.8-.477,1.417-1.894,1.7-3.395s.463-1.992,0-3.395A2.359,2.359,0,0,0,56.3,25.655Z" transform="translate(-16.927 -8.274)" fill="#fff"/>
    <path id="Path_20" data-name="Path 20" d="M59.72,49.046v3.395a6.04,6.04,0,0,0,3.4,1.7l3.391-1.7-1.7-5.094Z" transform="translate(-20.735 -16.439)" fill="#fff"/>
    <path id="Path_21" data-name="Path 21" d="M83.636,48.72c-2.263-2.509-3.47-2.809-6.788-1.7h-1.7a11.6,11.6,0,0,0-3.395,5.094c-1.067,2.5-2.176,5.35-1.7,6.788a32.577,32.577,0,0,0,3.4,3.394c2.118,1.746,3.131,2.809,3.391,3.395l6.788-1.7c.73-.238,3.568-6.279,3.395-6.786C85.668,53.116,85.024,50.286,83.636,48.72Z" transform="translate(-24.285 -16.113)" fill="#fff"/>
    <path id="Path_22" data-name="Path 22" d="M54.316,65.189c-.018-.112-.112-.336-.054-.336-1.272-1.808-6.717-6.1-6.788-6.788a13.639,13.639,0,0,0-3.394-5.09c-.77-1.218-.843-2.151-1.7-3.395s-2.443-3.774-3.4-5.094l-6.4-4.019c-.929-.5-6.275-.322-13.719-8.191l-.245-4.761a29.586,29.586,0,0,1-3.395-5.09c-1.961-5.849-.659-10.624-1.7-18.667L9.753,1.227,5.238.362A34.821,34.821,0,0,0,0,0V65.279H54.464Z" transform="translate(0 0)" fill="#fff"/>
  </g>
</svg>
